 <svg width="100%" height="100%" viewBox="0 0 3375 3375" version="1.1" xmlns="http://www.w3.org/2000/svg" xmlnsXlink="http://www.w3.org/1999/xlink" xmlSpace="preserve" xmlnsSerif="http://www.serif.com/" style={{ fillRule: 'evenodd', clipRule: 'evenodd', strokeLinecap: 'round', strokeLinejoin: 'round', strokeMiterlimit: 1.5 }}>
    <circle id="Hintergrund" cx="1687.5" cy="1687.5" r="1666.67" style={{ fillOpacity: 0.9 }} />
    <rect id="Throttle" x="2593.22" y="840.25" width="272.224" height="1694.5" style={{ fill: '#fff', stroke: '#001cff', strokeWidth: '20.83px' }} />
    <rect id="Brake" x="510.719" y="840.25" width="272.224" height="1694.5" style={{ fill: '#fff', stroke: '#001cff', strokeWidth: '20.83px' }} />
    <circle cx="1687.5" cy="1687.5" r="1666.67" style={{ fill: 'none', stroke: '#001cff', strokeWidth: '41.67px' }} />
    <path id="DRS_Bereich" d="M2027.92,2115.17l0,154.855c0,62.835 -51.014,113.85 -113.849,113.85l-453.14,-0c-62.835,-0 -113.849,-51.015 -113.849,-113.85l-0,-154.855c-0,-62.836 51.014,-113.85 113.849,-113.85l453.14,-0c62.835,-0 113.849,51.014 113.849,113.85Z" style={{ fill: '#fff' }} />
    <g id="DRS_Text" transform="matrix(235.553,0,0,235.553,1933.23,2276.91)"></g>
    <text x="1435.9px" y="2276.91px" style={{ fontFamily: 'ArialMT, Arial, sans-serif', fontSize: '235.553px' }}>DRS</text>
    <g id="KMH_data" transform="matrix(536.393,0,0,536.393,2136.55,1016.56)"></g>
    <text x="1241.6px" y="1016.56px" style={{ fontFamily: 'ArialMT, Arial, sans-serif', fontSize: '536.393px', fill: '#fff' }}>360</text>
    <g transform="matrix(200,0,0,200,1910.45,1254.56)"></g>
    <text x="1466.02px" y="1254.56px" style={{ fontFamily: 'ArialMT, Arial, sans-serif', fontSize: '200px', fill: '#fff' }}>KMH</text>
    <g id="RPM_data" transform="matrix(331.652,0,0,331.652,2150.25,1604.71)"></g>
    <text x="1228.01px" y="1604.71px" style={{ fontFamily: 'ArialMT, Arial, sans-serif', fontSize: '331.652px', fill: '#fff' }}>13000</text>
    <g transform="matrix(200,0,0,200,1906.94,1813.34)"></g>
    <text x="1462.5px" y="1813.34px" style={{ fontFamily: 'ArialMT, Arial, sans-serif', fontSize: '200px', fill: '#fff' }}>RPM</text>
    <g id="GEAR_data" transform="matrix(200,0,0,200,2061.33,2741.53)"></g>
    <text x="1950.1px" y="2741.53px" style={{ fontFamily: 'ArialMT, Arial, sans-serif', fontSize: '200px', fill: '#fff' }}>8</text>
    <g transform="matrix(200,0,0,200,1878.61,2741.53)"></g>
    <text x="1311.81px" y="2741.53px" style={{ fontFamily: 'ArialMT, Arial, sans-serif', fontSize: '200px', fill: '#fff' }}>GEAR</text>
  </svg>